<svg xmlns="http://www.w3.org/2000/svg" viewBox="0 0 64 64">
  <rect x="2" y="2" width="60" height="60" rx="14" fill="#0a0a0f"/>
  <g transform="translate(4,-2.5)">
    <g transform="translate(3,3) scale(0.056641)">
      <path fill-rule="evenodd" fill="#00ffff" opacity="0.85" d="M73.799 48.766C70.281 49.515 57.804 72.45 49.736 93c-15.711 40.016-26.079 86.911-31.282 141.5-2.192 22.998-3.03 79.788-1.534 104 4.424 71.602 17.327 134.72 38.534 188.495l4.337 10.997-2.959 9.202c-6.053 18.823-9.824 49.057-9.828 78.806-.003 26.082 2.282 47.913 6.938 66.28l1.719 6.779-8.137 13.373c-4.476 7.355-9.419 15.052-10.984 17.105-1.566 2.053-7.728 11.431-13.694 20.841C13.053 765.826 10.523 771 12.762 771c.42 0 15.382 2.438 33.25 5.419s35.188 5.74 38.488 6.134c7.513.895 10.5 1.99 10.5 3.85 0 .798 1.575 4.473 3.5 8.166s3.5 7.09 3.5 7.548-4.282 8.803-9.516 18.542-9.171 18.013-8.75 18.385c.962.847 20.967 5.153 41.238 8.874 15.081 2.769 15.534 2.925 17.988 6.211 23.404 31.337 82.795 66.493 140.54 83.19 46.844 13.545 117.125 19.829 222 19.851 96.318.02 139.876-3.233 218.5-16.32 24.522-4.081 49.452-10.903 71.5-19.563 43.604-17.129 77.625-42.248 89.273-65.915 2.457-4.991 2.661-5.144 7.626-5.712 2.805-.32 15.365-2.254 27.91-4.297 18.833-3.066 22.981-4.036 23.799-5.566.791-1.477-.909-5.57-8.39-20.207l-9.381-18.354 5.437-9.55 5.436-9.549 6.145-.552c3.38-.304 14.47-1.261 24.645-2.128 21.778-1.854 45.154-4.434 46.236-5.103.42-.26.764-1.127.764-1.928 0-2.444-28.537-51.908-38.372-66.511-3.288-4.884-3.381-5.262-2.059-8.425 2.53-6.056 6.39-27.921 7.384-41.829 1.073-15.019.148-39.313-2.426-63.661-2.103-19.904-4.009-30.389-7.49-41.213-1.63-5.068-2.57-9.457-2.09-9.754 2.128-1.316 14.228-44.92 20.958-75.533 20.451-93.013 26.912-190.02 18.05-271-4.925-45.008-14.201-82.874-27-110.214-8.776-18.746-21.818-36.289-26.974-36.283-3.085.003-22.916 5.02-33.028 8.355-20.501 6.762-50.707 20.572-72.453 33.126-25.341 14.629-60.551 39.668-86.5 61.514-19.184 16.151-60.21 57.554-74.319 75.002-15.609 19.304-28.816 37.587-37.434 51.825-7.962 13.153-18.073 33.004-20.879 40.991-1.696 4.828-2.098 5.266-4.368 4.765-17.775-3.916-45.102-7.037-75-8.565-47.29-2.417-112.884-.247-140.303 4.642-4.842.863-8.929 1.406-9.083 1.206s-3.042-5.625-6.419-12.055c-17.339-33.015-38.401-63.972-65.185-95.809-14.378-17.09-47.521-50.242-64.678-64.696-31.94-26.907-70.408-52.771-102.345-68.811-30.263-15.199-80.626-32.55-89.188-30.727M913.5 122.12c-15.152 4.994-38.127 17.974-57 32.202-27.725 20.903-62.919 55.79-88.337 87.566-5.011 6.264-8.889 11.747-8.618 12.185s3.071 1.542 6.223 2.454c10.899 3.152 44.738 15.684 46.45 17.202 1.222 1.083 1.454 2.015.804 3.231-1.067 1.993-10.944 7.852-31.438 18.648-8.06 4.247-14.301 8.014-13.869 8.372s6.119 4.435 12.639 9.06c13.502 9.578 16.097 12.248 14.608 15.032-.973 1.817-7.753 4.315-18.712 6.893-2.888.679-5.25 1.593-5.25 2.031 0 1.476 14.057 14.87 21.427 20.417 27.79 20.915 69.287 39.902 109.573 50.135 7.425 1.886 15.696 3.547 18.38 3.691l4.88.261 1.922-5.5c9.069-25.959 15.838-62.133 18.899-101 1.479-18.786 1.465-63.484-.026-82-3.028-37.595-9.144-67.962-18.759-93.147-4.258-11.152-3.949-10.978-13.796-7.733m-812.81 3.18c-7.835 13.481-12.984 27.875-17.069 47.715C71.325 232.742 72.906 315.658 87.5 376.5c3.129 13.047 9.817 34.113 11.333 35.697.83.869 20.126-3.17 31.885-6.672 32.283-9.617 63.663-24.243 89.282-41.612 12.257-8.311 25.708-18.816 30.293-23.661l2.792-2.951-13.292-6.056c-7.311-3.331-13.428-6.718-13.593-7.527s1.425-2.837 3.532-4.506c4.821-3.818 19.535-12.925 24.597-15.223l3.828-1.739-11.828-6.271c-15.318-8.121-26.749-14.611-32.132-18.244-3.614-2.439-4.103-3.144-3.055-4.406 3.269-3.939 25.521-12.826 44.858-17.916 3.575-.941 6.921-2.087 7.436-2.548.558-.498-.941-3.572-3.706-7.601-29.635-43.18-91.778-94.48-143.376-118.357-14.107-6.528-12.877-6.402-15.664-1.607M265.5 428.617c-51.178 7.412-90.594 33.853-123.621 82.93-11.532 17.136-19.718 40.25-24.574 69.384-2.694 16.164-2.462 49.598.454 65.569 6.496 35.572 19.49 65.804 39.298 91.435 25.74 33.304 60.688 55.698 100.295 64.263 14.783 3.197 45.559 3.187 60.397-.02 15.209-3.287 27.274-7.612 41.251-14.786 47.069-24.159 80.219-70.194 92.553-128.53 3.521-16.65 4.518-49.249 2.047-66.92-9.411-67.303-47.3-121.985-102.827-148.401-23.058-10.97-38.539-14.593-64.273-15.043-9.9-.174-19.35-.12-21 .119m475.5 6.496c-37.337 2.586-73.721 19.117-101.889 46.293-10.269 9.908-26.767 29.476-33.381 39.594-13.336 20.401-23.089 48.903-26.683 77.974-1.347 10.904-1.347 38.148 0 49.052 5.436 43.973 24.428 83.665 54.094 113.053 30.583 30.297 70.158 46.884 111.859 46.884 87.481 0 162.044-71.986 173.949-167.937 1.35-10.881 1.351-35.155.002-46.052-3.473-28.056-13.494-56.809-27.859-79.935-20.018-32.227-51.506-58.309-84.412-69.92-22.293-7.866-42.374-10.62-65.68-9.006m-427 56.47c-23.393 6.171-43.37 26.117-57.642 57.552-10.144 22.342-14.444 38.978-16.445 63.615-5.004 61.609 20.794 118.596 60.587 133.836 9.129 3.496 23.762 4.376 33.75 2.029 38.524-9.052 69.686-56.996 75.702-116.471 2.713-26.813-.249-53.439-8.619-77.486-6.693-19.227-15.785-34.047-28.115-45.827-13.824-13.208-27.148-18.881-44.073-18.765-5.305.036-12.12.719-15.145 1.517m386.5-.581c-25.811 3.88-48.063 23.453-60.251 52.998-9.272 22.473-14.201 45.877-14.972 71.086-1.375 44.944 9.805 82.649 33.134 111.751 20.765 25.904 51.523 34.167 78.235 21.017 23.565-11.601 43.331-42.156 51.71-79.933 10.829-48.826 2.585-102.563-21.388-139.421-7.619-11.713-21.526-25.057-31.468-30.194-11.997-6.199-24.707-8.851-35-7.304"/>
    </g>
  </g>
  <g transform="translate(-4,2.5)">
    <g transform="translate(3,3) scale(0.056641)">
      <path fill-rule="evenodd" fill="#ff00ff" opacity="0.85" d="M73.799 48.766C70.281 49.515 57.804 72.45 49.736 93c-15.711 40.016-26.079 86.911-31.282 141.5-2.192 22.998-3.03 79.788-1.534 104 4.424 71.602 17.327 134.72 38.534 188.495l4.337 10.997-2.959 9.202c-6.053 18.823-9.824 49.057-9.828 78.806-.003 26.082 2.282 47.913 6.938 66.28l1.719 6.779-8.137 13.373c-4.476 7.355-9.419 15.052-10.984 17.105-1.566 2.053-7.728 11.431-13.694 20.841C13.053 765.826 10.523 771 12.762 771c.42 0 15.382 2.438 33.25 5.419s35.188 5.74 38.488 6.134c7.513.895 10.5 1.99 10.5 3.85 0 .798 1.575 4.473 3.5 8.166s3.5 7.09 3.5 7.548-4.282 8.803-9.516 18.542-9.171 18.013-8.75 18.385c.962.847 20.967 5.153 41.238 8.874 15.081 2.769 15.534 2.925 17.988 6.211 23.404 31.337 82.795 66.493 140.54 83.19 46.844 13.545 117.125 19.829 222 19.851 96.318.02 139.876-3.233 218.5-16.32 24.522-4.081 49.452-10.903 71.5-19.563 43.604-17.129 77.625-42.248 89.273-65.915 2.457-4.991 2.661-5.144 7.626-5.712 2.805-.32 15.365-2.254 27.91-4.297 18.833-3.066 22.981-4.036 23.799-5.566.791-1.477-.909-5.57-8.39-20.207l-9.381-18.354 5.437-9.55 5.436-9.549 6.145-.552c3.38-.304 14.47-1.261 24.645-2.128 21.778-1.854 45.154-4.434 46.236-5.103.42-.26.764-1.127.764-1.928 0-2.444-28.537-51.908-38.372-66.511-3.288-4.884-3.381-5.262-2.059-8.425 2.53-6.056 6.39-27.921 7.384-41.829 1.073-15.019.148-39.313-2.426-63.661-2.103-19.904-4.009-30.389-7.49-41.213-1.63-5.068-2.57-9.457-2.09-9.754 2.128-1.316 14.228-44.92 20.958-75.533 20.451-93.013 26.912-190.02 18.05-271-4.925-45.008-14.201-82.874-27-110.214-8.776-18.746-21.818-36.289-26.974-36.283-3.085.003-22.916 5.02-33.028 8.355-20.501 6.762-50.707 20.572-72.453 33.126-25.341 14.629-60.551 39.668-86.5 61.514-19.184 16.151-60.21 57.554-74.319 75.002-15.609 19.304-28.816 37.587-37.434 51.825-7.962 13.153-18.073 33.004-20.879 40.991-1.696 4.828-2.098 5.266-4.368 4.765-17.775-3.916-45.102-7.037-75-8.565-47.29-2.417-112.884-.247-140.303 4.642-4.842.863-8.929 1.406-9.083 1.206s-3.042-5.625-6.419-12.055c-17.339-33.015-38.401-63.972-65.185-95.809-14.378-17.09-47.521-50.242-64.678-64.696-31.94-26.907-70.408-52.771-102.345-68.811-30.263-15.199-80.626-32.55-89.188-30.727M913.5 122.12c-15.152 4.994-38.127 17.974-57 32.202-27.725 20.903-62.919 55.79-88.337 87.566-5.011 6.264-8.889 11.747-8.618 12.185s3.071 1.542 6.223 2.454c10.899 3.152 44.738 15.684 46.45 17.202 1.222 1.083 1.454 2.015.804 3.231-1.067 1.993-10.944 7.852-31.438 18.648-8.06 4.247-14.301 8.014-13.869 8.372s6.119 4.435 12.639 9.06c13.502 9.578 16.097 12.248 14.608 15.032-.973 1.817-7.753 4.315-18.712 6.893-2.888.679-5.25 1.593-5.25 2.031 0 1.476 14.057 14.87 21.427 20.417 27.79 20.915 69.287 39.902 109.573 50.135 7.425 1.886 15.696 3.547 18.38 3.691l4.88.261 1.922-5.5c9.069-25.959 15.838-62.133 18.899-101 1.479-18.786 1.465-63.484-.026-82-3.028-37.595-9.144-67.962-18.759-93.147-4.258-11.152-3.949-10.978-13.796-7.733m-812.81 3.18c-7.835 13.481-12.984 27.875-17.069 47.715C71.325 232.742 72.906 315.658 87.5 376.5c3.129 13.047 9.817 34.113 11.333 35.697.83.869 20.126-3.17 31.885-6.672 32.283-9.617 63.663-24.243 89.282-41.612 12.257-8.311 25.708-18.816 30.293-23.661l2.792-2.951-13.292-6.056c-7.311-3.331-13.428-6.718-13.593-7.527s1.425-2.837 3.532-4.506c4.821-3.818 19.535-12.925 24.597-15.223l3.828-1.739-11.828-6.271c-15.318-8.121-26.749-14.611-32.132-18.244-3.614-2.439-4.103-3.144-3.055-4.406 3.269-3.939 25.521-12.826 44.858-17.916 3.575-.941 6.921-2.087 7.436-2.548.558-.498-.941-3.572-3.706-7.601-29.635-43.18-91.778-94.48-143.376-118.357-14.107-6.528-12.877-6.402-15.664-1.607M265.5 428.617c-51.178 7.412-90.594 33.853-123.621 82.93-11.532 17.136-19.718 40.25-24.574 69.384-2.694 16.164-2.462 49.598.454 65.569 6.496 35.572 19.49 65.804 39.298 91.435 25.74 33.304 60.688 55.698 100.295 64.263 14.783 3.197 45.559 3.187 60.397-.02 15.209-3.287 27.274-7.612 41.251-14.786 47.069-24.159 80.219-70.194 92.553-128.53 3.521-16.65 4.518-49.249 2.047-66.92-9.411-67.303-47.3-121.985-102.827-148.401-23.058-10.97-38.539-14.593-64.273-15.043-9.9-.174-19.35-.12-21 .119m475.5 6.496c-37.337 2.586-73.721 19.117-101.889 46.293-10.269 9.908-26.767 29.476-33.381 39.594-13.336 20.401-23.089 48.903-26.683 77.974-1.347 10.904-1.347 38.148 0 49.052 5.436 43.973 24.428 83.665 54.094 113.053 30.583 30.297 70.158 46.884 111.859 46.884 87.481 0 162.044-71.986 173.949-167.937 1.35-10.881 1.351-35.155.002-46.052-3.473-28.056-13.494-56.809-27.859-79.935-20.018-32.227-51.506-58.309-84.412-69.92-22.293-7.866-42.374-10.62-65.68-9.006m-427 56.47c-23.393 6.171-43.37 26.117-57.642 57.552-10.144 22.342-14.444 38.978-16.445 63.615-5.004 61.609 20.794 118.596 60.587 133.836 9.129 3.496 23.762 4.376 33.75 2.029 38.524-9.052 69.686-56.996 75.702-116.471 2.713-26.813-.249-53.439-8.619-77.486-6.693-19.227-15.785-34.047-28.115-45.827-13.824-13.208-27.148-18.881-44.073-18.765-5.305.036-12.12.719-15.145 1.517m386.5-.581c-25.811 3.88-48.063 23.453-60.251 52.998-9.272 22.473-14.201 45.877-14.972 71.086-1.375 44.944 9.805 82.649 33.134 111.751 20.765 25.904 51.523 34.167 78.235 21.017 23.565-11.601 43.331-42.156 51.71-79.933 10.829-48.826 2.585-102.563-21.388-139.421-7.619-11.713-21.526-25.057-31.468-30.194-11.997-6.199-24.707-8.851-35-7.304"/>
    </g>
  </g>
  <g transform="translate(3,3) scale(0.056641)">
    <path fill-rule="evenodd" fill="#ffffff" d="M73.799 48.766C70.281 49.515 57.804 72.45 49.736 93c-15.711 40.016-26.079 86.911-31.282 141.5-2.192 22.998-3.03 79.788-1.534 104 4.424 71.602 17.327 134.72 38.534 188.495l4.337 10.997-2.959 9.202c-6.053 18.823-9.824 49.057-9.828 78.806-.003 26.082 2.282 47.913 6.938 66.28l1.719 6.779-8.137 13.373c-4.476 7.355-9.419 15.052-10.984 17.105-1.566 2.053-7.728 11.431-13.694 20.841C13.053 765.826 10.523 771 12.762 771c.42 0 15.382 2.438 33.25 5.419s35.188 5.74 38.488 6.134c7.513.895 10.5 1.99 10.5 3.85 0 .798 1.575 4.473 3.5 8.166s3.5 7.09 3.5 7.548-4.282 8.803-9.516 18.542-9.171 18.013-8.75 18.385c.962.847 20.967 5.153 41.238 8.874 15.081 2.769 15.534 2.925 17.988 6.211 23.404 31.337 82.795 66.493 140.54 83.19 46.844 13.545 117.125 19.829 222 19.851 96.318.02 139.876-3.233 218.5-16.32 24.522-4.081 49.452-10.903 71.5-19.563 43.604-17.129 77.625-42.248 89.273-65.915 2.457-4.991 2.661-5.144 7.626-5.712 2.805-.32 15.365-2.254 27.91-4.297 18.833-3.066 22.981-4.036 23.799-5.566.791-1.477-.909-5.57-8.39-20.207l-9.381-18.354 5.437-9.55 5.436-9.549 6.145-.552c3.38-.304 14.47-1.261 24.645-2.128 21.778-1.854 45.154-4.434 46.236-5.103.42-.26.764-1.127.764-1.928 0-2.444-28.537-51.908-38.372-66.511-3.288-4.884-3.381-5.262-2.059-8.425 2.53-6.056 6.39-27.921 7.384-41.829 1.073-15.019.148-39.313-2.426-63.661-2.103-19.904-4.009-30.389-7.49-41.213-1.63-5.068-2.57-9.457-2.09-9.754 2.128-1.316 14.228-44.92 20.958-75.533 20.451-93.013 26.912-190.02 18.05-271-4.925-45.008-14.201-82.874-27-110.214-8.776-18.746-21.818-36.289-26.974-36.283-3.085.003-22.916 5.02-33.028 8.355-20.501 6.762-50.707 20.572-72.453 33.126-25.341 14.629-60.551 39.668-86.5 61.514-19.184 16.151-60.21 57.554-74.319 75.002-15.609 19.304-28.816 37.587-37.434 51.825-7.962 13.153-18.073 33.004-20.879 40.991-1.696 4.828-2.098 5.266-4.368 4.765-17.775-3.916-45.102-7.037-75-8.565-47.29-2.417-112.884-.247-140.303 4.642-4.842.863-8.929 1.406-9.083 1.206s-3.042-5.625-6.419-12.055c-17.339-33.015-38.401-63.972-65.185-95.809-14.378-17.09-47.521-50.242-64.678-64.696-31.94-26.907-70.408-52.771-102.345-68.811-30.263-15.199-80.626-32.55-89.188-30.727M913.5 122.12c-15.152 4.994-38.127 17.974-57 32.202-27.725 20.903-62.919 55.79-88.337 87.566-5.011 6.264-8.889 11.747-8.618 12.185s3.071 1.542 6.223 2.454c10.899 3.152 44.738 15.684 46.45 17.202 1.222 1.083 1.454 2.015.804 3.231-1.067 1.993-10.944 7.852-31.438 18.648-8.06 4.247-14.301 8.014-13.869 8.372s6.119 4.435 12.639 9.06c13.502 9.578 16.097 12.248 14.608 15.032-.973 1.817-7.753 4.315-18.712 6.893-2.888.679-5.25 1.593-5.25 2.031 0 1.476 14.057 14.87 21.427 20.417 27.79 20.915 69.287 39.902 109.573 50.135 7.425 1.886 15.696 3.547 18.38 3.691l4.88.261 1.922-5.5c9.069-25.959 15.838-62.133 18.899-101 1.479-18.786 1.465-63.484-.026-82-3.028-37.595-9.144-67.962-18.759-93.147-4.258-11.152-3.949-10.978-13.796-7.733m-812.81 3.18c-7.835 13.481-12.984 27.875-17.069 47.715C71.325 232.742 72.906 315.658 87.5 376.5c3.129 13.047 9.817 34.113 11.333 35.697.83.869 20.126-3.17 31.885-6.672 32.283-9.617 63.663-24.243 89.282-41.612 12.257-8.311 25.708-18.816 30.293-23.661l2.792-2.951-13.292-6.056c-7.311-3.331-13.428-6.718-13.593-7.527s1.425-2.837 3.532-4.506c4.821-3.818 19.535-12.925 24.597-15.223l3.828-1.739-11.828-6.271c-15.318-8.121-26.749-14.611-32.132-18.244-3.614-2.439-4.103-3.144-3.055-4.406 3.269-3.939 25.521-12.826 44.858-17.916 3.575-.941 6.921-2.087 7.436-2.548.558-.498-.941-3.572-3.706-7.601-29.635-43.18-91.778-94.48-143.376-118.357-14.107-6.528-12.877-6.402-15.664-1.607M265.5 428.617c-51.178 7.412-90.594 33.853-123.621 82.93-11.532 17.136-19.718 40.25-24.574 69.384-2.694 16.164-2.462 49.598.454 65.569 6.496 35.572 19.49 65.804 39.298 91.435 25.74 33.304 60.688 55.698 100.295 64.263 14.783 3.197 45.559 3.187 60.397-.02 15.209-3.287 27.274-7.612 41.251-14.786 47.069-24.159 80.219-70.194 92.553-128.53 3.521-16.65 4.518-49.249 2.047-66.92-9.411-67.303-47.3-121.985-102.827-148.401-23.058-10.97-38.539-14.593-64.273-15.043-9.9-.174-19.35-.12-21 .119m475.5 6.496c-37.337 2.586-73.721 19.117-101.889 46.293-10.269 9.908-26.767 29.476-33.381 39.594-13.336 20.401-23.089 48.903-26.683 77.974-1.347 10.904-1.347 38.148 0 49.052 5.436 43.973 24.428 83.665 54.094 113.053 30.583 30.297 70.158 46.884 111.859 46.884 87.481 0 162.044-71.986 173.949-167.937 1.35-10.881 1.351-35.155.002-46.052-3.473-28.056-13.494-56.809-27.859-79.935-20.018-32.227-51.506-58.309-84.412-69.92-22.293-7.866-42.374-10.62-65.68-9.006m-427 56.47c-23.393 6.171-43.37 26.117-57.642 57.552-10.144 22.342-14.444 38.978-16.445 63.615-5.004 61.609 20.794 118.596 60.587 133.836 9.129 3.496 23.762 4.376 33.75 2.029 38.524-9.052 69.686-56.996 75.702-116.471 2.713-26.813-.249-53.439-8.619-77.486-6.693-19.227-15.785-34.047-28.115-45.827-13.824-13.208-27.148-18.881-44.073-18.765-5.305.036-12.12.719-15.145 1.517m386.5-.581c-25.811 3.88-48.063 23.453-60.251 52.998-9.272 22.473-14.201 45.877-14.972 71.086-1.375 44.944 9.805 82.649 33.134 111.751 20.765 25.904 51.523 34.167 78.235 21.017 23.565-11.601 43.331-42.156 51.71-79.933 10.829-48.826 2.585-102.563-21.388-139.421-7.619-11.713-21.526-25.057-31.468-30.194-11.997-6.199-24.707-8.851-35-7.304"/>
  </g>
</svg>
